<svg xmlns="http://www.w3.org/2000/svg"  viewBox="0 0 50 50" width="50px" height="50px"><path d="M 21.833984 2.2246094 C 11.968984 3.6656094 2.0332031 11.919266 2.0332031 25.072266 C 2.0332031 37.853266 12.356141 48 24.994141 48 C 39.232141 48 51.795844 34.161797 46.964844 18.216797 C 46.756844 17.531797 45.929094 17.260984 45.371094 17.708984 L 41.091797 21.142578 C 40.801797 21.374578 40.673234 21.746328 40.740234 22.111328 C 40.911234 23.049328 41 24.018 41 25 C 41 34.102 33.409937 41.421469 24.210938 40.980469 C 16.699938 40.620469 9.6656875 33.836797 9.0546875 26.341797 C 8.3656875 17.888797 14.256344 10.672812 22.152344 9.2578125 C 22.638344 9.1718125 23 8.7664375 23 8.2734375 L 23 3.2128906 C 23 2.5938906 22.445984 2.1356094 21.833984 2.2246094 z M 30.017578 2.5878906 C 29.47274 2.5848828 29 3.0147656 29 3.5878906 L 29 18.078125 C 27.822 17.396125 26.459 17 25 17 C 20.582 17 17 20.582 17 25 C 17 29.418 20.582 33 25 33 C 29.418 33 33 29.418 33 25 L 33 11.150391 C 34.612 12.083391 36.051141 13.279313 37.244141 14.695312 C 37.679141 15.212312 38.488609 15.161844 38.849609 14.589844 L 41.615234 10.214844 C 41.861234 9.8268438 41.818094 9.3104688 41.496094 8.9804688 C 40.422094 7.8784687 36.703906 4.1571875 30.253906 2.6171875 C 30.174281 2.5983125 30.095412 2.5883203 30.017578 2.5878906 z"/></svg>